<svg viewBox="0 0 32 32" xmlns="http://www.w3.org/2000/svg">
  <defs>
    <linearGradient id="mainGrad" x1="0%" y1="0%" x2="100%" y2="100%">
      <stop offset="0%" style="stop-color:#0f2657;stop-opacity:1" />
      <stop offset="50%" style="stop-color:#1e40af;stop-opacity:1" />
      <stop offset="100%" style="stop-color:#3b82f6;stop-opacity:1" />
    </linearGradient>
    <radialGradient id="glowGrad" cx="50%" cy="50%" r="50%">
      <stop offset="0%" style="stop-color:white;stop-opacity:0.6" />
      <stop offset="100%" style="stop-color:white;stop-opacity:0" />
    </radialGradient>
  </defs>

  <!-- 3D Katmanlı Arka plan -->
  <rect x="1" y="1" width="30" height="30" rx="4" fill="#0a1c3e"/>
  <rect x="2" y="2" width="28" height="28" rx="3" fill="url(#mainGrad)"/>
  
  <!-- H Harfi -->
  <g transform="translate(16,16) scale(0.7)" fill="none" stroke="white">
    <!-- Ana çerçeve -->
    <rect x="-12" y="-12" width="24" height="24" rx="2" 
          stroke-width="2.5" opacity="0.9"/>
    
    <!-- H harfi -->
    <path d="M-6,-8 v16 M6,-8 v16 M-6,0 h12" 
          stroke-width="3" 
          stroke-linecap="round"/>
          
    <!-- Dekoratif köşeler -->
    <path d="M-12,-12 h4 M12,-12 h-4 M-12,12 h4 M12,12 h-4
             M-12,-12 v4 M-12,12 v-4 M12,-12 v4 M12,12 v-4"
          stroke-width="2.5"
          stroke-linecap="round"
          opacity="0.7"/>
  </g>

  <!-- Parlamalar -->
  <circle cx="8" cy="8" r="0.8" fill="white" opacity="0.8"/>
  <circle cx="7" cy="7" r="0.4" fill="white" opacity="0.6"/>
</svg>